<svg width="36" height="26" viewBox="0 0 36 26" fill="none" xmlns="http://www.w3.org/2000/svg">
<circle cx="5.48565" cy="5.48565" r="5.48565" transform="matrix(-1 0 0 1 23.8285 0.999878)" stroke="white" stroke-width="2"/>
<path d="M8.74295 20.1104C8.74295 18.9304 9.48469 17.8779 10.5959 17.4811V17.4811C15.6056 15.6919 21.0801 15.6919 26.0898 17.4811V17.4811C27.201 17.8779 27.9427 18.9304 27.9427 20.1104V22.6939C27.9427 23.911 26.8648 24.8459 25.6599 24.6738L22.1612 24.174C19.6285 23.8121 17.0572 23.8121 14.5245 24.174L11.0258 24.6738C9.82093 24.8459 8.74295 23.911 8.74295 22.6939V20.1104Z" stroke="white" stroke-width="2"/>
<path d="M26.5714 12.1231C28.9518 12.1231 30.8815 10.1934 30.8815 7.81296C30.8815 5.43253 28.9518 3.50281 26.5714 3.50281" stroke="white" stroke-width="2" stroke-linecap="round"/>
<path d="M31.2919 21.9564L31.7142 22.0167C32.9809 22.1977 34.1141 21.2148 34.1141 19.9353V18.5178C34.1141 17.5907 33.5313 16.7637 32.6583 16.4519C31.7874 16.1409 30.8986 15.8987 29.9999 15.7253" stroke="white" stroke-width="2" stroke-linecap="round"/>
<path d="M9.42869 12.1231C7.04825 12.1231 5.11853 10.1934 5.11853 7.81296C5.11853 5.43253 7.04825 3.50281 9.42869 3.50281" stroke="white" stroke-width="2" stroke-linecap="round"/>
<path d="M4.70813 21.9564L4.28582 22.0167C3.01917 22.1977 1.88591 21.2148 1.88591 19.9353V18.5178C1.88591 17.5907 2.4687 16.7637 3.34177 16.4519C4.21265 16.1409 5.10142 15.8987 6.00015 15.7253" stroke="white" stroke-width="2" stroke-linecap="round"/>
</svg>
