<svg width="30" height="26" viewBox="0 0 30 26" fill="none" xmlns="http://www.w3.org/2000/svg">
<path d="M1.66653 7.57165C1.66653 6.46709 2.56196 5.57166 3.66653 5.57166H26.3335C27.4381 5.57166 28.3335 6.46709 28.3335 7.57166V10.9408C28.3335 11.824 27.7542 12.6026 26.9082 12.8564L16.1494 16.084C15.3996 16.309 14.6004 16.309 13.8506 16.084L3.09184 12.8564C2.24587 12.6026 1.66653 11.824 1.66653 10.9408V7.57165Z" stroke="white" stroke-width="2"/>
<path d="M15 12.4291L15 10.1433" stroke="white" stroke-width="2" stroke-linecap="round" stroke-linejoin="round"/>
<path d="M2.77771 12.4285L2.77771 21C2.77771 23.2091 4.56857 25 6.77771 25H23.2224C25.4316 25 27.2224 23.2091 27.2224 21V12.4285" stroke="white" stroke-width="2"/>
<path d="M19.4445 5.57145V3C19.4445 1.89543 18.5491 1 17.4445 1H12.5555C11.4509 1 10.5555 1.89543 10.5555 3L10.5555 5.57145" stroke="white" stroke-width="2"/>
</svg>
