<svg width="33" height="32" viewBox="0 0 33 32" fill="none" xmlns="http://www.w3.org/2000/svg">
<path d="M16.5208 16.9562L14.4708 22.9375H14.4645L12.877 27.5063C12.9895 27.5375 13.0958 27.5625 13.2083 27.5938H13.227C14.2362 27.8629 15.2762 27.9994 16.3208 28C16.8417 28.0039 17.3621 27.9663 17.877 27.8875C18.5661 27.8011 19.2459 27.6526 19.9083 27.4438C20.0708 27.3938 20.2333 27.3375 20.3958 27.2812C20.2208 26.9062 19.8458 26.075 19.827 26.0375L16.5208 16.9562ZM5.38325 11.2812C4.75825 12.6938 4.33325 14.4313 4.33325 16C4.33325 16.3938 4.352 16.7875 4.3895 17.175C4.82075 21.625 7.69575 25.3625 11.6458 27.0438C11.8083 27.1125 11.977 27.1812 12.1458 27.2437L6.33325 11.2875C5.83325 11.2688 5.7395 11.3 5.38325 11.2812Z" fill="#525252"/>
<path d="M27.2208 10.9625C26.9518 10.3836 26.6362 9.82761 26.277 9.3C26.177 9.15 26.0645 9 25.9583 8.85C24.604 7.03234 22.765 5.63304 20.652 4.8125C19.2739 4.27343 17.8068 3.99782 16.327 4C14.5344 4.00004 12.7646 4.40274 11.1485 5.17837C9.53229 5.95399 8.11099 7.08274 6.9895 8.48125C6.58323 8.98486 6.21751 9.51987 5.89575 10.0812C6.78325 10.0875 7.88325 10.0875 8.00825 10.0875C9.1395 10.0875 10.8833 9.95 10.8833 9.95C11.4708 9.9125 11.5333 10.7687 10.952 10.8375C10.952 10.8375 10.3645 10.9062 9.7145 10.9375L13.6458 22.625L16.0083 15.5437L14.3333 10.9437C13.7458 10.9125 13.202 10.8437 13.202 10.8437C12.6145 10.8125 12.6895 9.91875 13.2645 9.95625C13.2645 9.95625 15.0458 10.0937 16.1083 10.0937C17.2395 10.0937 18.9833 9.95625 18.9833 9.95625C19.5645 9.91875 19.6395 10.775 19.052 10.8437C19.052 10.8437 18.4708 10.9125 17.8208 10.9437L21.7145 22.5438L22.7958 18.9437C23.3395 17.5437 23.6145 16.3875 23.6145 15.4625C23.6145 14.1312 23.1333 13.2062 22.7208 12.4875C22.177 11.5937 21.6645 10.8437 21.6645 9.9625C21.6645 8.96875 22.4145 8.04375 23.477 8.04375H23.6145C25.252 8 25.7895 9.625 25.8583 10.7312V10.7687C25.8833 11.2187 25.8645 11.55 25.8645 11.9437C25.8645 13.0312 25.6583 14.2625 25.0458 15.8062L22.6083 22.8563L21.2145 26.9625C21.327 26.9125 21.4333 26.8625 21.5458 26.8062C25.0895 25.0938 27.6708 21.6812 28.2145 17.6375C28.2951 17.0996 28.3348 16.5564 28.3333 16.0125C28.3356 14.2681 27.9559 12.5444 27.2208 10.9625Z" fill="#525252"/>
<path d="M16.3333 3C19.3325 3.00155 22.239 4.03982 24.5605 5.93895C26.8819 7.83807 28.4754 10.4813 29.0712 13.4208C29.6669 16.3603 29.2283 19.4153 27.8295 22.0684C26.4307 24.7215 24.1577 26.8096 21.3958 27.9788C18.2188 29.3214 14.6386 29.347 11.4427 28.05C8.24687 26.7529 5.69716 24.2395 4.3545 21.0625C3.01184 17.8855 2.98622 14.3053 4.28327 11.1095C5.58032 7.91362 8.09379 5.36391 11.2708 4.02125C12.8723 3.34356 14.5942 2.99621 16.3333 3ZM16.3333 2C8.60138 2 2.33325 8.26813 2.33325 16C2.33325 23.7319 8.60138 30 16.3333 30C24.0651 30 30.3333 23.7319 30.3333 16C30.3333 8.26813 24.0651 2 16.3333 2Z" fill="#525252"/>
</svg>
