<svg width="33" height="32" viewBox="0 0 33 32" fill="none" xmlns="http://www.w3.org/2000/svg">
<path d="M20.5139 2.27374C19.3521 2.08249 17.6514 1.99437 16.4971 1.99999C15.4151 2.00125 14.3351 2.09281 13.2683 2.27374C10.4096 2.77374 9.88893 3.81749 9.88893 5.74499V7.99999H16.8889V8.99999H7.61518C5.01768 8.99999 2.90955 12.1044 2.88893 15.945V16C2.88802 16.6715 2.95355 17.3414 3.08455 18C3.66518 20.8925 5.47393 23 7.61518 23H8.88893V19.625C8.88893 17.6687 10.1914 15.8781 12.3264 15.4937L12.9433 15.4169H20.5139C20.8319 15.4181 21.1486 15.3761 21.4552 15.2919C22.1562 15.1047 22.7754 14.6903 23.2158 14.1136C23.6561 13.537 23.8929 12.8306 23.8889 12.105V5.74499C23.8889 3.93749 22.3464 2.57437 20.5139 2.27374ZM13.0721 6.59374C12.8199 6.59461 12.5731 6.52057 12.3631 6.38101C12.1531 6.24145 11.9892 6.04266 11.8923 5.80985C11.7954 5.57704 11.7698 5.32069 11.8188 5.07332C11.8678 4.82595 11.9891 4.5987 12.1674 4.42039C12.3458 4.24208 12.573 4.12074 12.8204 4.07175C13.0677 4.02277 13.3241 4.04835 13.5569 4.14525C13.7897 4.24215 13.9885 4.40601 14.1281 4.61604C14.2676 4.82607 14.3417 5.07282 14.3408 5.32499C14.3409 5.49163 14.3081 5.65665 14.2444 5.81062C14.1807 5.96459 14.0872 6.10449 13.9694 6.22232C13.8515 6.34015 13.7116 6.4336 13.5577 6.49733C13.4037 6.56106 13.2387 6.59383 13.0721 6.59374Z" fill="#525252"/>
<path d="M30.5939 13.5625C29.9252 10.8994 28.1933 9 26.1627 9H25.0558V11.9656C25.0558 14.4387 23.4308 16.2294 21.447 16.5362C21.2467 16.5673 21.0442 16.583 20.8414 16.5831H13.2689C12.9477 16.5828 12.6278 16.6238 12.317 16.705C10.9227 17.0712 9.88892 18.2312 9.88892 19.7356V26.0963C9.88892 27.9088 11.7102 28.9713 13.497 29.4906C15.6352 30.1125 17.9645 30.225 20.5233 29.4906C22.2227 29.005 23.8889 28.0231 23.8889 26.0963V24H16.8889V23H26.1627C28.0027 23 29.597 21.4419 30.3783 19.1681C30.7214 18.1473 30.8939 17.0769 30.8889 16C30.8907 15.1785 30.7916 14.3599 30.5939 13.5625ZM20.6708 25.25C20.923 25.2491 21.1697 25.3232 21.3797 25.4627C21.5898 25.6023 21.7536 25.8011 21.8505 26.0339C21.9474 26.2667 21.973 26.5231 21.924 26.7704C21.875 27.0178 21.7537 27.245 21.5754 27.4234C21.3971 27.6017 21.1698 27.723 20.9225 27.772C20.6751 27.821 20.4187 27.7954 20.1859 27.6985C19.9531 27.6016 19.7543 27.4377 19.6148 27.2277C19.4752 27.0177 19.4012 26.7709 19.402 26.5187C19.402 26.3521 19.4347 26.1871 19.4985 26.0331C19.5622 25.8792 19.6556 25.7393 19.7735 25.6214C19.8913 25.5036 20.0312 25.4101 20.1852 25.3464C20.3391 25.2827 20.5042 25.2499 20.6708 25.25Z" fill="#525252"/>
</svg>
