<svg width="33" height="32" viewBox="0 0 33 32" fill="none" xmlns="http://www.w3.org/2000/svg">
<path d="M2.55566 2V30H30.5557V2H2.55566ZM17.5557 23.75C17.5557 26.4756 15.9457 27.8044 13.615 27.8044C11.51 27.8044 10.2882 26.7144 9.66816 25.3988L11.8107 24.1019C12.2238 24.835 12.5375 25.455 13.4394 25.455C14.1894 25.455 14.8057 25.1169 14.8057 23.8013V15H17.5557V23.75ZM23.765 27.7419C21.3219 27.7419 19.7432 26.6394 18.9725 25.1169L21.1182 23.875C21.6807 24.7962 22.415 25.41 23.7119 25.41C24.8019 25.41 25.435 24.9275 25.435 24.1756C25.435 23.2738 24.7832 22.9544 23.58 22.4256L22.9225 22.1431C21.0238 21.3356 19.765 20.3206 19.765 18.1775C19.765 16.2044 21.2682 14.7631 23.6175 14.7631C25.2907 14.7631 26.4925 15.2831 27.3582 16.8056L25.3057 18.125C24.8544 17.3169 24.3682 17 23.6144 17C22.8438 17 22.355 17.4888 22.355 18.125C22.355 18.9144 22.8438 19.2337 23.9713 19.7225L24.6288 20.0044C26.8657 20.9631 28.125 21.9419 28.125 24.1394C28.1257 26.5081 26.265 27.7419 23.765 27.7419Z" fill="#525252"/>
</svg>
