<svg width="33" height="32" viewBox="0 0 33 32" fill="none" xmlns="http://www.w3.org/2000/svg">
<path d="M27.3044 8.12938L17.59 2.30313C17.2411 2.1042 16.8463 1.99959 16.4447 1.99959C16.043 1.99959 15.6483 2.1042 15.2994 2.30313L5.58437 8.12875C5.23427 8.3433 4.94541 8.64451 4.74572 9.00328C4.54602 9.36206 4.44223 9.76628 4.44437 10.1769V21.8125C4.44227 22.2234 4.54606 22.6278 4.74574 22.9869C4.94542 23.346 5.23424 23.6475 5.58437 23.8625L8.13187 25.3838L8.14624 25.3919C9.43249 26.05 9.92499 26.05 10.4956 26.05C12.5044 26.05 13.7525 24.75 13.7525 22.6569V11.375C13.7537 11.2342 13.6989 11.0986 13.6003 10.9981C13.5016 10.8975 13.3671 10.8402 13.2262 10.8388H11.8275C11.6866 10.8402 11.5521 10.8975 11.4535 10.9981C11.3548 11.0986 11.3001 11.2342 11.3012 11.375V22.6569C11.3063 22.8184 11.2696 22.9785 11.1946 23.1216C11.1196 23.2647 11.0088 23.386 10.8731 23.4738C10.5044 23.6988 9.96874 23.6513 9.36437 23.3394L6.92312 21.87C6.91377 21.8636 6.90615 21.855 6.90091 21.845C6.89568 21.835 6.893 21.8238 6.89312 21.8125V10.3413C6.89352 10.3281 6.89708 10.3152 6.90349 10.3036C6.90991 10.2921 6.919 10.2823 6.92999 10.275L16.42 4.4625C16.4271 4.45898 16.4349 4.45715 16.4428 4.45715C16.4507 4.45715 16.4585 4.45898 16.4656 4.4625L25.9612 10.275C25.972 10.2829 25.9808 10.2932 25.9868 10.3052C25.9928 10.3172 25.9958 10.3304 25.9956 10.3438V21.8125C25.9959 21.8244 25.9935 21.8361 25.9886 21.8469C25.9837 21.8577 25.9765 21.8673 25.9675 21.875L16.4637 27.5406C16.4475 27.5462 16.4299 27.5462 16.4137 27.5406L13.9869 26.0994C13.9148 26.0523 13.8316 26.0251 13.7456 26.0206C13.6597 26.0161 13.5741 26.0344 13.4975 26.0738L13.4762 26.0863C12.8062 26.4831 12.6262 26.5863 12.005 26.8125C11.9037 26.8494 11.6656 26.9375 11.645 27.1731C11.6244 27.4088 11.8506 27.5763 12.0519 27.6931L15.2956 29.685C15.6412 29.892 16.0365 30.0015 16.4394 30.0019H16.4756C16.8684 29.9957 17.2527 29.8864 17.59 29.685L27.3044 23.8644C27.6543 23.6487 27.9429 23.3468 28.1426 22.9875C28.3422 22.6281 28.4461 22.2235 28.4444 21.8125V10.1769C28.4463 9.76639 28.3425 9.36233 28.1428 9.00368C27.9431 8.64503 27.6543 8.34391 27.3044 8.12938Z" fill="#525252"/>
<path d="M19.6869 19.8781C17.3563 19.8781 16.8594 19.2269 16.7119 18.1756C16.6953 18.0505 16.6343 17.9354 16.54 17.8515C16.4457 17.7675 16.3244 17.7202 16.1982 17.7181H14.9607C14.8212 17.7211 14.6886 17.7792 14.5918 17.8797C14.4951 17.9802 14.4421 18.1149 14.4444 18.2544C14.4444 19.1656 14.7644 22.14 19.6894 22.14C21.2132 22.14 22.4807 21.7838 23.3538 21.1094C24.2269 20.435 24.6944 19.4538 24.6944 18.2844C24.6944 15.9375 23.1632 15.295 20.1475 14.875C17.0819 14.4488 17.0819 14.2319 17.0819 13.7569C17.0819 13.415 17.0819 12.6144 19.2982 12.6144C20.875 12.6144 21.7194 12.8138 21.9894 13.8644C22.0133 13.9809 22.0763 14.0857 22.1679 14.1615C22.2595 14.2373 22.3743 14.2796 22.4932 14.2813H23.735C23.8082 14.2805 23.8804 14.2642 23.9468 14.2334C24.0132 14.2026 24.0722 14.158 24.12 14.1025C24.2155 13.991 24.2631 13.8464 24.2525 13.7C24.0919 11.4781 22.4675 10.3513 19.3 10.3513C16.4213 10.3513 14.7032 11.6481 14.7032 13.82C14.7032 16.2013 16.4838 16.8744 19.1588 17.1531C22.2838 17.4763 22.2838 17.9475 22.2838 18.3638C22.2857 19.0125 22.0163 19.8781 19.6869 19.8781Z" fill="#525252"/>
</svg>
