<svg width="33" height="32" viewBox="0 0 33 32" fill="none" xmlns="http://www.w3.org/2000/svg">
<path d="M21.2222 11C22.5483 11 23.82 10.4732 24.7577 9.53553C25.6954 8.59785 26.2222 7.32608 26.2222 6C26.2222 4.67392 25.6954 3.40215 24.7577 2.46447C23.82 1.52678 22.5483 1 21.2222 1H11.2222C9.89609 1 8.62432 1.52678 7.68664 2.46447C6.74895 3.40215 6.22217 4.67392 6.22217 6C6.22217 7.32608 6.74895 8.59785 7.68664 9.53553C8.62432 10.4732 9.89609 11 11.2222 11C9.89609 11 8.62432 11.5268 7.68664 12.4645C6.74895 13.4021 6.22217 14.6739 6.22217 16C6.22217 17.3261 6.74895 18.5979 7.68664 19.5355C8.62432 20.4732 9.89609 21 11.2222 21C10.2333 21 9.26656 21.2932 8.44432 21.8427C7.62207 22.3921 6.98121 23.173 6.60277 24.0866C6.22433 25.0002 6.12532 26.0055 6.31824 26.9755C6.51117 27.9454 6.98737 28.8363 7.68664 29.5355C8.3859 30.2348 9.27681 30.711 10.2467 30.9039C11.2166 31.0969 12.222 30.9978 13.1356 30.6194C14.0492 30.241 14.8301 29.6001 15.3795 28.7779C15.9289 27.9556 16.2222 26.9889 16.2222 26V11H21.2222Z" fill="#525252"/>
<path d="M21.2222 21C23.9836 21 26.2222 18.7614 26.2222 16C26.2222 13.2386 23.9836 11 21.2222 11C18.4607 11 16.2222 13.2386 16.2222 16C16.2222 18.7614 18.4607 21 21.2222 21Z" fill="#525252"/>
</svg>
