<svg width="32" height="32" viewBox="0 0 32 32" fill="none" xmlns="http://www.w3.org/2000/svg">
<path d="M25.6663 11.295C25.3467 11.1858 25.0248 11.0842 24.7006 10.99C24.7544 10.7712 24.804 10.5512 24.8494 10.33C25.5806 6.77375 25.1025 3.90875 23.4706 2.96562C21.9081 2.06062 19.3456 3.00375 16.7606 5.25875C16.5065 5.48125 16.2575 5.71041 16.0138 5.94625C15.8512 5.78958 15.6846 5.63625 15.5138 5.48625C12.8044 3.075 10.0887 2.05937 8.45875 3.00562C6.89625 3.9125 6.43188 6.60562 7.09 9.97624C7.15583 10.3096 7.22979 10.6415 7.31187 10.9719C6.93836 11.0778 6.56799 11.1945 6.20125 11.3219C3.02875 12.4312 1 14.1706 1 15.9744C1 17.8381 3.1775 19.7069 6.48562 20.84C6.75396 20.9312 7.02479 21.016 7.29812 21.0944C7.20937 21.4481 7.13083 21.8058 7.0625 22.1675C6.4375 25.48 6.925 28.1094 8.48438 29.0106C10.095 29.9412 12.7969 28.985 15.4306 26.6787C15.639 26.4962 15.8473 26.3035 16.0556 26.1006C16.319 26.3552 16.5898 26.6023 16.8681 26.8419C19.4181 29.0406 21.9363 29.9287 23.4931 29.025C25.1025 28.0912 25.6256 25.2662 24.9463 21.8294C24.8942 21.5669 24.8342 21.299 24.7663 21.0256C24.9563 20.9694 25.1423 20.9112 25.3244 20.8512C28.7619 19.7094 31.0012 17.8631 31.0012 15.9762C31 14.1637 28.9062 12.4131 25.6663 11.295ZM17.6038 6.2275C19.8181 4.29562 21.8881 3.53312 22.8319 4.07812C23.8363 4.65875 24.2269 7 23.5956 10.0706C23.554 10.2706 23.509 10.47 23.4606 10.6687C22.1391 10.3682 20.7991 10.156 19.4494 10.0337C18.6766 8.92054 17.8294 7.86084 16.9137 6.86187C17.1379 6.64437 17.3675 6.43291 17.6025 6.2275H17.6038ZM9.85812 17.5156C10.1294 18.0406 10.4129 18.5592 10.7087 19.0712C11.01 19.5937 11.324 20.1085 11.6506 20.6156C10.7219 20.5147 9.79903 20.3659 8.88562 20.17C9.15063 19.3125 9.47687 18.4219 9.85812 17.5156ZM9.85812 14.495C9.48312 13.6081 9.16562 12.7356 8.905 11.8931C9.76125 11.7012 10.6737 11.5444 11.625 11.4256C11.3062 11.9231 10.9996 12.4279 10.705 12.94C10.4104 13.4521 10.1275 13.9704 9.85625 14.495H9.85812ZM10.5394 16.0056C10.9344 15.1819 11.3598 14.374 11.8156 13.5819C12.271 12.7902 12.7558 12.0167 13.27 11.2612C14.1625 11.1937 15.0775 11.1581 16.0019 11.1581C16.9262 11.1581 17.8469 11.1937 18.7388 11.2619C19.2475 12.0156 19.7294 12.7865 20.1844 13.5744C20.6394 14.3623 21.0704 15.1665 21.4775 15.9869C21.0758 16.8135 20.6458 17.6248 20.1875 18.4206C19.7329 19.2123 19.2537 19.9881 18.75 20.7481C17.8594 20.8106 16.9375 20.845 16 20.845C15.0625 20.845 14.1581 20.8156 13.2837 20.7587C12.7658 20.0008 12.2771 19.224 11.8175 18.4281C11.3579 17.6323 10.9313 16.8248 10.5375 16.0056H10.5394ZM21.2969 19.0625C21.599 18.5383 21.889 18.0073 22.1669 17.4694C22.5478 18.3332 22.8841 19.216 23.1744 20.1144C22.2502 20.3225 21.3158 20.4821 20.375 20.5925C20.6925 20.0887 20.9998 19.5787 21.2969 19.0625ZM22.1544 14.4956C21.8777 13.9685 21.59 13.4477 21.2913 12.9331C20.9996 12.4256 20.6956 11.9244 20.3794 11.4294C21.3363 11.5506 22.2544 11.7119 23.115 11.9087C22.8383 12.7866 22.5177 13.65 22.1544 14.4956ZM16.0144 7.78C16.6385 8.46193 17.2278 9.17492 17.78 9.91625C16.5988 9.86 15.4167 9.86 14.2338 9.91625C14.8169 9.145 15.4138 8.42937 16.0144 7.78ZM9.10375 4.11625C10.1075 3.53375 12.3269 4.36625 14.6663 6.44562C14.8156 6.57875 14.9663 6.71812 15.1163 6.8625C14.1959 7.86132 13.3427 8.9201 12.5625 10.0319C11.2158 10.1532 9.87838 10.362 8.55875 10.6569C8.4825 10.3502 8.41375 10.0415 8.3525 9.73062C7.78687 6.84125 8.16125 4.66312 9.10375 4.11625ZM7.64062 19.8569C7.39062 19.7856 7.14375 19.7083 6.9 19.625C5.4375 19.125 4.22938 18.4725 3.4 17.7619C2.6575 17.125 2.28125 16.4894 2.28125 15.9744C2.28125 14.88 3.91 13.4837 6.62625 12.5369C6.9675 12.4181 7.31167 12.3096 7.65875 12.2112C8.06216 13.5077 8.55072 14.7761 9.12125 16.0081C8.54392 17.2572 8.04931 18.5429 7.64062 19.8569ZM14.5863 25.7112C13.4219 26.7312 12.2556 27.4544 11.2275 27.8187C10.3038 28.1456 9.56812 28.155 9.12375 27.8981C8.1775 27.3512 7.78375 25.2394 8.32063 22.4069C8.38438 22.0735 8.45729 21.7402 8.53938 21.4069C9.87221 21.694 11.223 21.8901 12.5825 21.9937C13.3703 23.1113 14.2305 24.1761 15.1575 25.1812C14.9713 25.3644 14.7806 25.5406 14.5863 25.7112ZM16.05 24.26C15.4425 23.6031 14.8363 22.8762 14.245 22.095C14.8196 22.1175 15.4046 22.1287 16 22.1287C16.6112 22.1287 17.2162 22.1156 17.8125 22.0887C17.2623 22.842 16.674 23.5667 16.05 24.26ZM23.8325 26.0469C23.6538 27.0119 23.2944 27.6556 22.85 27.9131C21.9044 28.4619 19.8825 27.7487 17.7025 25.8681C17.4525 25.6531 17.2025 25.4225 16.9481 25.1806C17.8571 24.1715 18.6971 23.1025 19.4625 21.9806C20.8295 21.8648 22.1869 21.6549 23.525 21.3525C23.5863 21.6 23.6404 21.8425 23.6875 22.08C23.9881 23.5987 24.0312 24.9725 23.8325 26.0469ZM24.92 19.6319C24.7563 19.6862 24.5875 19.7387 24.4163 19.79C23.9967 18.4875 23.489 17.2149 22.8969 15.9812C23.4668 14.764 23.9546 13.5099 24.3569 12.2275C24.6637 12.3169 24.9619 12.4106 25.2488 12.51C28.025 13.4675 29.7188 14.885 29.7188 15.9744C29.7188 17.1369 27.8894 18.6456 24.92 19.6319Z" fill="#525252"/>
<path d="M16 18.6594C16.532 18.6611 17.0524 18.505 17.4955 18.2107C17.9386 17.9165 18.2844 17.4973 18.4892 17.0064C18.694 16.5155 18.7484 15.9749 18.6457 15.453C18.543 14.9311 18.2877 14.4514 17.9122 14.0746C17.5367 13.6979 17.0579 13.4411 16.5363 13.3367C16.0148 13.2323 15.474 13.285 14.9824 13.4881C14.4908 13.6913 14.0705 14.0357 13.7748 14.4779C13.4791 14.92 13.3213 15.44 13.3213 15.9719C13.3206 16.3243 13.3893 16.6734 13.5235 16.9992C13.6578 17.325 13.8549 17.6212 14.1037 17.8708C14.3525 18.1204 14.648 18.3185 14.9734 18.4538C15.2988 18.5891 15.6476 18.659 16 18.6594Z" fill="#525252"/>
</svg>
